<svg xmlns="http://www.w3.org/2000/svg" viewBox="0 0 1000 1000">
<rect fill="#78278b" x="0" y="0" width="100%" height="100%"/>
<path fill="#fff" d="M500 101h.004c20.627.002 38.813 13.506 44.771 33.248 5.9591 19.743-1.7214 41.053-18.908 52.459l.27734.41602-.5-.0117-1.668 73.42.50586.0117.14648.47461c15.558-4.7884 31.224-9.5817 41.062-21.18 6.1648-7.2666 9.9865-17.143 10.9-26.947.97781-10.491-1.3603-20.791-.51367-30.777 1.0377-12.24 6.8354-24.233 14.285-34.627 5.3745-7.498 11.591-14.143 18.883-19.373 3.3263-2.3857 6.874-4.4746 10.689-6.1016 1.4966-.63816 3.0217-1.1978 4.5254-1.5078 8.0717-1.6646 16.319 3.7669 24.283 8.6543 12.185 7.4771 23.437 13.359 34.953 19.504 15.076 8.0445 30.643 16.558 46.783 23.609 23.076 10.082 47.295 17.16 71.977 21.062 14.301 2.2615 28.742 3.4561 43.168 4.6211 7.0941.57285 14.203 1.1407 21.352 1.0547 8-.0962 16-1.0075 23.846-1.1738 6.0434-.12812 11.926.18457 17.82 3.3574 2.5192 1.3559 4.9386 3.2579 5.3047 5.2051.19151 1.0187-.12466 2.1863-.76172 3.4082s-1.5836 2.479-2.5547 3.6562c-5.1455 6.2376-10.682 9.9749-16.666 13.777-5.4487 3.462-11.214 6.942-17.191 9.7695-10.904 5.1575-22.587 8.1782-34.303 11.205l.125.48633-.44922.21485c1.0237 2.1403 2.0316 4.2514 2.6191 6.5.46066 1.7631.66386 3.614.41601 5.3555-.41882 2.9427-2.1518 5.7088-4.2617 8.0664-6.1503 6.8725-15.294 10.114-24.414 11.803-8.5182 1.5773-16.983 1.7983-25.475 2.0195l.0137.5-.44141.23437c.72675 1.3674 1.4238 2.6964 1.709 4.0801.28717 1.3933.17598 2.9192-.20703 4.3613-.62588 2.3567-1.9714 4.4881-3.627 6.3066-1.3195 1.4493-2.8288 2.6942-4.4766 3.7656l.27148.41602-.46289.19726 98.834 232.65.46094-.19531v.5h2.3672c-26.548 35.75-68.432 56.893-113.01 56.893-44.58 0-86.463-21.143-113.01-56.893h2.3672v-.50195l.46094.19531 96.08-226.17-.45508-.19336-.006-.48828c-2.5049.027-5.0023-.0774-7.4941-.29297-6.5486-.56637-13.074-1.9109-19.619-3.2617l-.0996.48242-.48242.13477c.52716 1.8847 1.0286 3.7168.91406 5.4785-.11086 1.7052-.80145 3.446-1.7461 5.0058-1.972 3.2568-5.013 5.6942-8.2832 7.7363-2.8789 1.7978-5.9002 3.2711-9.0859 4.3281-3.4582 1.1474-7.1103 1.8056-10.746 1.791-3.3469-.0134-6.6968-.59624-9.9043-1.5801-2.7844-.85403-5.4752-2.016-8.1816-3.1855l-.19922.45898-.49414.0645c.12498.95963.2508 1.929.43164 2.9102.21366 1.1592.47976 2.2666.41993 3.2969-.0947 1.6291-1.0082 3.302-2.2188 4.5996-1.2454 1.3349-2.8026 2.286-4.4512 3.0976-7.2475 3.5679-15.685 4.2199-23.973 4.7539-5.4768.35283-10.863.65693-16.248.96094l.0293.5-.35547.34961c2.9726 3.0086 5.933 6.0042 8.5527 9.2891 3.6562 4.5844 6.6717 9.7552 8.709 15.223 1.7403 4.6701 2.7736 9.5758 3.4883 14.598.86118 6.0503 1.2496 12.215.006 18.035-1.6509 7.7243-6.2031 14.949-11.738 20.826-13.088 13.899-31.657 20.262-50.32 26.639l.16016.4707-.38477.32422c3.7203 4.4199 7.4206 8.8198 10.281 13.697 3.5997 6.1368 5.9035 13.08 7.1875 20.24 1.3531 7.5453 1.5692 15.307.004 22.627-2.5151 11.761-9.6545 22.484-18.109 31.58-6.443 6.9311-13.628 12.898-21.629 17.459-6.2172 3.5442-12.953 6.2503-19.709 8.9648l.1875.46485-.27735.41601c5.3876 3.5856 10.741 7.1552 15.066 11.717 5.3127 5.6033 9.1312 12.758 11.305 20.416 2.4884 8.7682 2.8175 18.185.43945 26.719-2.9872 10.718-10.274 20.132-18.537 28.076-11.052 10.626-23.82 18.604-36.619 26.598l.26953.42774-.35938.35156c2.9757 3.044 5.9336 6.0729 8.4141 9.4121 5.352 7.2047 8.5588 15.953 10.012 25.23 1.6795 10.724.99951 22.098-4.1133 31.051-2.2923 4.0145-5.4964 7.5796-8.918 10.857-2.943 2.8192-6.0424 5.4227-9.1504 8.0332l.32031.38086-.38672.31446c3.2642 4.0324 6.5057 8.0424 9.0137 12.605 6.0826 11.069 7.9265 25.566 3.7344 37.201-2.487 6.9022-7.1228 12.876-11.799 18.887l.78906.61524c.14382-.18486.27219-.37949.41602-.56445.87341 2.6565 1.7503 5.3055 2.4199 7.998 1.2299 4.9461 1.8487 10.04 1.2441 15.18-.61201 5.2032-2.4852 10.453-5.8359 14.141-2.668 2.9363-6.344 4.9548-10.072 6.9922l.24023.43946-.5-.0117-.4337 19.133h-18.943l-.4336-19.137-.49609.0117.23437-.42773c-3.7283-2.0374-7.4042-4.0559-10.072-6.9922-3.3508-3.6874-5.2239-8.9374-5.8359-14.141-.60453-5.14.0143-10.234 1.2441-15.18.66959-2.6925 1.5465-5.3416 2.4199-7.998.14383.18496.2722.37959.41602.56445l.78906-.61523c-4.676-6.0107-9.3119-11.984-11.799-18.887-4.1923-11.635-2.349-26.134 3.7344-37.203 2.508-4.5631 5.7495-8.5711 9.0137-12.604l-.38672-.31446.32031-.38085c-3.1081-2.6105-6.2074-5.214-9.1504-8.0332-3.4216-3.2778-6.6256-6.8429-8.918-10.857-5.1128-8.9529-5.7928-20.327-4.1133-31.051 1.4529-9.2771 4.6597-18.026 10.012-25.23 2.4804-3.3392 5.4383-6.3681 8.4141-9.4121l-.35938-.35156.26953-.42774c-12.8-7.9939-25.567-15.971-36.619-26.598-8.2634-7.9438-15.55-17.358-18.537-28.076-2.378-8.5333-2.049-17.951.43945-26.719 2.1735-7.6582 5.992-14.813 11.305-20.416 4.3251-4.5616 9.6788-8.1312 15.066-11.717l-.27735-.41601.1875-.46485c-6.7563-2.7145-13.492-5.4206-19.709-8.9648-8.0008-4.5608-15.186-10.528-21.629-17.459-8.4548-9.0958-15.594-19.82-18.109-31.58-1.5654-7.32-1.3492-15.082.004-22.627 1.284-7.1602 3.5878-14.103 7.1875-20.24 2.8607-4.8775 6.561-9.2774 10.281-13.697l-.38477-.32422.16016-.47071c-18.663-6.3771-37.232-12.74-50.32-26.639-5.5352-5.877-10.087-13.102-11.738-20.826-1.2438-5.8197-.85533-11.985.006-18.035.71473-5.0219 1.748-9.9275 3.4883-14.598 2.0373-5.4674 5.0528-10.638 8.709-15.223 2.6197-3.2848 5.5802-6.2804 8.5527-9.2891l-.35547-.34961.0293-.5c-5.3855-.30402-10.771-.60811-16.248-.96094-8.2876-.53401-16.725-1.186-23.973-4.7539-1.6486-.81168-3.2058-1.7627-4.4512-3.0976-1.2106-1.2977-2.1241-2.9706-2.2188-4.5996-.0598-1.0303.20627-2.1377.41993-3.2969.18084-.98119.30666-1.9505.43164-2.9102l-.49414-.0645-.19922-.45899c-2.7064 1.1695-5.3972 2.3315-8.1816 3.1856-3.2076.98383-6.5574 1.5648-9.9043 1.5781-3.6358.0146-7.2879-.64163-10.746-1.7891-3.1857-1.057-6.207-2.5303-9.0859-4.3281-3.2702-2.0422-6.3112-4.4795-8.2832-7.7363-.94465-1.5598-1.6352-3.3006-1.7461-5.0059-.11452-1.7617.38691-3.5938.91406-5.4785l-.48046-.13476-.10157-.49024c-6.5448 1.3508-13.072 2.6954-19.621 3.2617-2.4919.2156-4.9872.31998-7.4922.29297l-.006.49805-.45508.19336 96.08 226.17.46094-.19531v.5h2.3711c-26.548 35.751-68.433 56.893-113.01 56.893s-86.465-21.142-113.01-56.893h2.3672v-.5l.46094.19531 98.834-232.66-.46094-.19531.26953-.41601c-1.6477-1.0714-3.1571-2.3164-4.4766-3.7656-1.6556-1.8185-3.0011-3.9499-3.627-6.3066-.383-1.4422-.49418-2.968-.20703-4.3613.28513-1.3837.98223-2.7127 1.709-4.0801l-.44141-.23437.0137-.5c-8.4912-.22121-16.956-.44221-25.475-2.0195-9.1201-1.6892-18.264-4.9302-24.414-11.803-2.11-2.3576-3.8429-5.1237-4.2617-8.0664-.24784-1.7414-.0447-3.5924.41601-5.3555.58754-2.2486 1.5954-4.3616 2.6191-6.502l-.44922-.21485.125-.48437c-11.715-3.0269-23.399-6.0476-34.303-11.205-5.9778-2.8275-11.743-6.3076-17.191-9.7695-5.9841-3.8024-11.521-7.5417-16.666-13.779-.9711-1.1773-1.9176-2.4344-2.5547-3.6562-.63706-1.2219-.95323-2.3895-.7617-3.4082.36605-1.9472 2.7855-3.8472 5.3047-5.2031 5.8941-3.1728 11.777-3.4855 17.82-3.3574 7.8455.1663 15.846 1.0776 23.846 1.1738 7.1486.086 14.258-.48183 21.352-1.0547 14.426-1.165 28.867-2.3596 43.168-4.6211 24.682-3.9027 48.9-10.981 71.977-21.062 16.14-7.0512 31.707-15.565 46.783-23.609 11.516-6.1445 22.768-12.027 34.953-19.504 7.9645-4.8874 16.211-10.321 24.283-8.6562 1.5037.31005 3.0288.8716 4.5254 1.5098 3.8155 1.6269 7.3632 3.7159 10.689 6.1016 7.2921 5.2302 13.508 11.875 18.883 19.373 7.4498 10.394 13.247 22.387 14.285 34.627.84666 9.9862-1.4915 20.286-.51367 30.777.91389 9.8047 4.7356 19.679 10.9 26.945 9.8386 11.598 25.505 16.393 41.062 21.182l.14648-.47656.50391-.0117-1.668-73.42-.50586.0117.28125-.42188c-17.187-11.406-24.867-32.716-18.908-52.459 5.9575-19.742 24.143-33.246 44.771-33.248z"/>
<path fill="#78278b" d="M779.81 305.21l97.396 229.27h-101.89V306.83c1.5347-.45435 3.0371-.99443 4.4961-1.6191zm-559.62.002c1.4573.6237 2.9594 1.1634 4.4922 1.6172v227.65h-101.89zm10.219 2.9902c.11063.0203.22143.0429.33203.0625 1.9332.34371 3.8568.58537 5.7754.75781l95.781 225.46h-101.89v-185.78zm539.18 0v226.27h-101.89l95.777-225.45c1.9193-.17244 3.8454-.41397 5.7793-.75781.111-.0197.22113-.0422.33203-.0625zm-228.69 37.936c-.40879 1.3277-.82555 2.6599-1.1172 4.0918-.29766 1.4614-.49593 3.0242-.21484 4.4726.45223 2.3305 2.1278 4.1401 4.2617 5.5156 2.134 1.3755 4.752 2.3427 7.2383 3.002 5.7408 1.5223 10.804 1.3855 15.965 1.5137 6.1816.15357 12.639.68512 19.094.42774 6.5275-.26026 12.945-1.3075 19.17-.22071 4.1489.72451 8.2414 2.397 11.555 5.0332 2.9579 2.3537 5.3099 5.488 6.6992 8.9922 2.022 5.0996 2.0206 11.034.41601 16.357-1.6661 5.5272-5.0614 10.415-9.2852 14.324-6.2763 5.8092-14.387 9.4593-22.705 11.648-8.1854 2.1548-16.578 2.897-24.986 3.8379-9.0044 1.0077-17.974 2.2416-26.973 2.9941-6.2703.52445-12.568.80988-18.871 1.0957l1.832-80.588c3.4269-.97139 6.8336-1.9212 10.281-2.3027 2.501-.27673 5.0639-.23508 7.6406-.19531zm-81.797.008c2.5768-.0398 5.1396-.0814 7.6406.19531 3.4482.38159 6.8556 1.3312 10.283 2.3027l1.832 80.588c-6.3036-.28585-12.602-.5712-18.873-1.0957-8.9985-.75258-17.968-1.9864-26.973-2.9941-8.4085-.94093-16.801-1.6831-24.986-3.8379-8.3177-2.1892-16.429-5.8392-22.705-11.648-4.2237-3.9093-7.6191-8.7971-9.2852-14.324-1.6045-5.3234-1.6059-11.258.41601-16.357 1.3893-3.5042 3.7414-6.6385 6.6992-8.9922 3.3133-2.6362 7.4058-4.3087 11.555-5.0332 6.2245-1.0868 12.642-.0396 19.17.22071 6.4552.25738 12.912-.27418 19.094-.42774 5.161-.12817 10.224.009 15.965-1.5137 2.4863-.65925 5.1043-1.6265 7.2383-3.002 2.134-1.3755 3.8095-3.1851 4.2617-5.5156.2811-1.4485.0828-3.0113-.21484-4.4726-.29165-1.4319-.7084-2.7641-1.1172-4.0918zm61.352 113.52c5.9972.87392 11.986 1.7451 17.957 2.9727 11.142 2.2907 22.218 5.7804 31.441 12.422 1.518 1.0931 2.9629 2.259 4.0762 3.6387 1.7595 2.1806 2.7676 4.9918 3.416 7.9121 1.1099 4.9983 1.1524 10.198-.21289 14.891-1.7895 6.1507-6.0352 11.533-10.648 16.475-5.8739 6.2929-12.266 11.811-19.434 15.924-8.6873 4.9846-18.581 7.9195-28.527 10.828zm-40.904.008l1.9336 85.064c-9.9479-2.909-19.843-5.8448-28.531-10.83-7.1676-4.1127-13.56-9.6309-19.434-15.924-4.6132-4.9416-8.859-10.324-10.648-16.475-1.3653-4.6922-1.3228-9.8923-.21289-14.891.64838-2.9203 1.6565-5.7315 3.416-7.9121 1.1132-1.3796 2.5582-2.5456 4.0762-3.6387 9.2234-6.6414 20.3-10.131 31.441-12.422 5.972-1.2277 11.961-2.0986 17.959-2.9727zm38.068 124.86c6.0875 2.7127 12.119 5.435 16.846 8.7285 4.908 3.4195 8.398 7.4126 9.2637 12.633.55739 3.3609.0262 7.3053-1.0605 10.965-1.6435 5.5341-4.5363 10.408-8.0606 14.746-5.1967 6.3979-11.783 11.616-18.439 16.814zm-35.23.006l1.4512 63.891c-6.6575-5.1995-13.246-10.417-18.443-16.816-3.5242-4.3385-6.417-9.212-8.0606-14.746-1.0868-3.6595-1.6179-7.6059-1.0605-10.967.86564-5.2202 4.3557-9.2113 9.2637-12.631 4.7281-3.2942 10.761-6.0171 16.85-8.7305z"/>
</svg>