<svg version="1" xmlns="http://www.w3.org/2000/svg" width="1365.333" height="1365.333" viewBox="0 0 1024.000000 1024.000000"><path d="M0 512v512h1024V0H0v512zm524.5-406.8c7.2 1.8 15.9 7 21.7 12.9 18.7 19.1 18 49.3-1.6 67.7l-6.4 6-.7 37.6c-.5 23.7-.4 37.6.2 37.6 1.8 0 17.9-5.7 23.5-8.4 16.4-7.8 25.9-20.2 28.7-37.3.5-3.2.7-12.8.4-21.3-.6-18.1.4-23.9 6.6-36.1 9.4-18.6 24.6-33.8 39.3-39.4 8.1-3 11.6-1.9 32.8 10.5 17.4 10.2 59 32.1 72.5 38.3 30.8 14 59.6 22.2 92 26.1 28.7 3.5 47.5 4.6 68.5 3.9 19.7-.6 20.7-.5 25.7 1.6 6.4 2.8 8.7 5.2 7.9 8.4-1.7 6.8-19.3 20.4-37.7 29.1-5.2 2.5-15.1 6.1-21.9 8.1-6.8 2-12.6 3.7-12.8 3.9-.2.2.4 2.9 1.3 5.9 1.4 5 1.4 5.8-.1 9.6C860 281.1 840.7 289 818 289h-7.8l.5 5.9c.6 5.8.5 5.9-3.7 10.5l-4.3 4.6 50.2 118.3c27.6 65 50.9 118.7 51.8 119.4 1.4 1.1 1.1 1.8-2.2 6-6.5 8-18.8 19.6-28.2 26.2-37.9 27-87.5 33.8-131.8 18.1-25.8-9.2-45.2-23.2-65.4-47.3-1.3-1.5-1.3-1.9.2-3 1.3-1 96.9-224.2 98.4-229.8.4-1.4-.6-1.8-5.9-2.3-5.7-.6-13.7-1.9-19.5-3.1-2-.5-2.1-.1-2 3.8.2 5.5-2.9 10.3-9.2 14.4-10.9 7-22.2 8.5-33.6 4.5-3.2-1.2-6.1-2.2-6.3-2.2-.2 0-.1 1.8.3 4 .6 3.7.4 4.3-2.7 7.4-2.2 2.2-5.4 4-8.9 5-6 1.7-21.3 3.6-30.1 3.6-3.2 0-5.8.3-5.8.6s2.7 3.8 5.9 7.7c11 13.3 15.7 27.2 14.9 44.5-.6 13-3.3 18.8-14.3 29.7-9.1 9.1-20.3 15.5-38.5 22-5.8 2.1-10.6 3.9-10.8 4.1-.2.1 2.2 3.5 5.2 7.6 6.8 8.8 11 19.2 12.7 31.1 3.1 20.9-4.9 39.2-25.1 57.9-8.8 8.2-16.8 13.3-28.2 18-4.3 1.8-7.8 3.5-7.8 3.9 0 .4 2.2 2.1 4.9 3.8 19.7 12.7 29 39.3 21 60.5-5.4 14.5-21.3 30.7-45.4 46.1-4.9 3.2-9.2 5.9-9.4 6.1-.2.2 2 3.1 4.9 6.6 10.1 12 14.5 25.7 13.8 42.6-.5 13.5-3.6 20-14.8 30.9l-8.2 8.1 4 5.4c8.3 10.9 11.8 22.1 10.9 34.9-.6 8.7-2.7 14.2-8.9 23.2l-4.3 6.2 1.9 5.5c1.3 3.6 2 8.4 2 14 .1 11.5-3 18.2-10.9 23.5l-5.4 3.6-.3 9.7-.3 9.7h-19l-.3-9.7-.3-9.7-5.4-3.6c-7.9-5.3-11-12-10.9-23.5 0-5.6.7-10.4 2-14l1.9-5.5-4.3-6.2c-7.6-11-8.7-14.3-8.6-26.8 0-14.5 1.8-19.2 13.8-36 .6-.8-.4-2.4-3.5-5.1-8.4-7.4-12.1-11.9-15.2-18.4-2.7-5.6-3.2-7.9-3.5-16.2-.7-16.9 3.7-30.6 13.8-42.6 2.9-3.5 5.1-6.4 4.9-6.6-.2-.2-4.4-2.9-9.4-6.2-38-24.7-51.9-45.4-47.5-71.2 2.3-13.9 10.4-26.4 22.6-34.8 3-2 5.4-4 5.4-4.4 0-.4-2.1-1.5-4.7-2.5-22.2-8.2-43-26.7-52.3-46.8-8.6-18.4-5.1-43.6 8.6-61.5 3-4.1 5.4-7.5 5.2-7.7-.2-.1-5.5-2.1-11.8-4.4-18.6-6.8-28.2-12.4-37.5-21.6-10.9-10.8-13.7-16.7-14.3-29.5-.7-17.4 3.7-30.9 14.5-44.2 3.5-4.2 6.3-8 6.3-8.3 0-.3-2.6-.5-5.7-.5-8.9 0-24.2-1.9-30.2-3.6-3.5-1-6.7-2.8-8.9-5-3.1-3.1-3.3-3.7-2.7-7.4.8-4.5.7-4.5-3.9-2.6-1.9.8-5.9 1.9-9 2.6-16.5 3.4-38.4-10-35.9-22.1.5-2.7.4-3.1-1.3-2.6-2.8.9-12.9 2.5-20.2 3.2-5.3.6-6.3 1-5.9 2.4 1.5 5.5 97.1 228.8 98.4 229.8 1.4 1.1 1.1 1.8-2.2 6-6.5 8-18.8 19.6-28.2 26.2-37.9 27-87.5 33.8-131.8 18.1-25.8-9.2-45.2-23.2-65.4-47.3-1.3-1.5-1.3-1.9.2-3 .9-.6 24.2-54.4 51.8-119.4l50.2-118.2-4.3-4.8c-4.1-4.7-4.2-4.9-3.7-10.6l.5-5.7H206c-22.7 0-42-7.9-46.4-19.1-1.5-3.8-1.5-4.6-.1-9.6.9-3 1.5-5.7 1.3-5.9-.2-.2-6-1.9-12.8-3.9-6.8-2-16.6-5.5-21.6-7.9-18.5-8.8-36.3-22.5-38-29.3-.8-3.2 1.5-5.6 7.9-8.4 5-2.1 6-2.2 25.6-1.6 20.8.7 41.1-.5 69.1-3.9 31.7-3.8 60.5-12 91.3-26 14.7-6.7 56.3-28.7 73.7-38.9 16.7-9.9 18.9-10.9 25-10.9 17.7-.2 44.8 28.3 51.5 53.9 1.2 4.6 1.5 10.7 1.4 25.5-.2 17.2.1 20.2 1.8 25.7 5.6 17.2 17.6 27.4 41.2 35.4 4.7 1.6 8.9 2.9 9.4 2.9.6 0 .7-13.8.3-37.6l-.8-37.6-6.4-6c-19.6-18.4-20.3-48.6-1.4-67.9 12-12.2 29.4-17 46.5-12.7z"/><path d="M177.2 426.2c-26.5 62.3-48.8 115-49.7 117L126 547h104V430.6c0-105.2-.2-116.4-1.6-117-.9-.3-1.9-.6-2.3-.6-.5 0-22.5 51-48.9 113.2zM795.3 313.7c-1 .4-1.3 24.7-1.3 116.9V547h104l-1.5-3.8c-22.7-54.5-98.1-230.2-98.9-230.1-.6 0-1.7.3-2.3.6zM236 431.4V547h104l-1.5-3.8c-.9-2-22.9-53.9-48.9-115.2l-47.4-111.5-3.1-.3-3.1-.3v115.5zM781.1 318.2c-.5 1.3-22.4 52.7-48.6 114.3-26.2 61.6-47.9 112.6-48.2 113.2-.4 1 10.3 1.3 51.6 1.3H788V316h-3c-2.2 0-3.3.6-3.9 2.2zM470.8 354.5c-.3.4-.2 2.1.3 4 1.8 6.3-1.4 10.2-10.8 13.2-3.7 1.2-10.8 1.6-31.3 1.8-29.3.3-31.4.6-37.9 6.8-6.8 6.5-8.8 16.2-5.5 26.1 3.6 10.6 17.5 21.2 32.9 25.1 9.6 2.4 53.6 7.5 65.2 7.5h6.5l-.7-39.8c-.4-21.8-1.1-40.4-1.6-41.4-.5-.9-2.6-1.9-4.9-2.2-2.2-.3-5.7-.8-7.8-1.2-2.1-.3-4-.2-4.4.1zM546.5 354.6c-5.9.8-10.4 2.5-10.9 4.2-.2.9-.7 19.4-1.1 40.9l-.7 39.3h6.5c11.9 0 55.1-5 65.2-7.6 14.2-3.5 26.6-12.2 31.5-22.1 2.8-5.7 3.7-14.5 2-19.8-1.7-5.2-7.6-11.4-13-13.8-4-1.8-7-2-31-2.2-28.7-.3-34.1-1.1-39.7-5.9-2.2-1.9-2.7-3.2-2.6-6.3 0-2.1.2-4.5.4-5.3.4-1.6-1.6-2-6.6-1.4zM476.8 473c-16.8 3.1-31 8.7-38.3 15.1-7.1 6.2-8.4 20.2-3 31 3.4 6.6 16.6 20.1 25.3 25.7 6.3 4.1 15.2 7.9 26.4 11.2l6 1.9-.6-23.7c-.3-13-.9-32.6-1.2-43.5-.7-22.8 1.1-20.6-14.6-17.7zM532.6 490.7c-.3 10.9-.9 30.5-1.2 43.5l-.6 23.7 8.3-2.6c17.4-5.3 29.3-12.6 40.8-24.8 10.8-11.6 14.1-22 10.7-33.7-2.4-8.4-10.6-14.4-26.6-19.7-5.7-1.9-26.2-6.1-29.6-6.1-.8 0-1.3 5.3-1.8 19.7zM485.5 602.7c-14.4 7.3-19.2 13.4-18.2 23 1 9.2 5.7 17.6 15.1 26.9 4.5 4.5 9.2 8.7 10.4 9.3l2.2 1.2v-13.9c0-19-1.2-50.2-1.9-50.2-.3.1-3.7 1.7-7.6 3.7zM529.7 617.2c-.4 9.9-.7 24.4-.7 32v13.9l2.2-1.2c1.2-.6 5.9-4.8 10.4-9.3 11.6-11.5 16.8-23.1 14.9-33.2-.9-5.2-8.3-12.1-17.8-16.7-4.2-2-7.9-3.7-8-3.7-.2 0-.7 8.2-1 18.2z"/></svg>