<?xml version="1.0" standalone="no"?>
<!DOCTYPE svg PUBLIC "-//W3C//DTD SVG 20010904//EN"
 "http://www.w3.org/TR/2001/REC-SVG-20010904/DTD/svg10.dtd">
<svg version="1.0" xmlns="http://www.w3.org/2000/svg"
 width="289.000000pt" height="289.000000pt" viewBox="0 0 289.000000 289.000000"
 preserveAspectRatio="xMidYMid meet">
<metadata>
Created by potrace 1.11, written by Peter Selinger 2001-2013
</metadata>
<g transform="translate(0.000000,289.000000) scale(0.100000,-0.100000)"
fill="#000000" stroke="none">
<path d="M1679 2789 c-6 -12 -26 -77 -44 -143 -17 -67 -37 -131 -43 -143 -26
-48 -4 -92 46 -93 15 0 22 -6 22 -20 0 -30 -35 -38 -124 -28 -86 9 -99 14 -76
28 8 6 11 10 6 10 -6 0 -2 6 8 13 18 13 17 34 -3 99 -5 18 -15 62 -21 98 -7
36 -17 71 -23 78 -8 10 -8 15 0 20 8 5 6 18 -4 45 -16 39 -46 50 -72 25 -6 -7
-17 -13 -24 -13 -18 0 -38 -71 -40 -142 -1 -35 -4 -63 -7 -63 -3 0 -6 -25 -7
-56 -2 -53 -1 -56 32 -75 65 -39 39 -65 -82 -84 -39 -6 -43 -5 -43 14 0 24 34
63 46 53 4 -4 4 -2 0 5 -3 6 -8 38 -10 70 -5 75 -26 186 -37 193 -4 3 -9 26
-10 52 -2 37 -7 49 -25 59 -19 10 -27 9 -39 -1 -13 -11 -13 -15 -3 -21 9 -6 6
-9 -9 -9 -20 0 -23 -5 -23 -42 0 -24 -5 -72 -10 -108 -17 -112 -21 -200 -9
-222 8 -15 8 -19 0 -14 -17 11 -13 -6 5 -19 21 -15 12 -63 -14 -72 -9 -4 -23
-13 -30 -20 -7 -7 -24 -13 -38 -13 -28 0 -44 28 -24 40 9 6 11 22 7 55 -4 29
-3 44 3 40 6 -3 10 4 10 17 0 19 -2 20 -11 8 -8 -11 -9 -9 -3 10 10 34 7 86
-6 110 -5 10 -11 38 -12 61 -2 53 -37 93 -71 80 -25 -9 -47 -45 -47 -77 0 -32
-39 -213 -54 -248 -23 -59 -3 -140 35 -141 20 0 24 -6 27 -36 3 -34 0 -38 -47
-69 -28 -17 -49 -36 -46 -40 3 -4 -4 -10 -15 -13 -11 -3 -24 -17 -30 -31 -5
-14 -14 -26 -19 -26 -5 0 -11 -10 -15 -23 -3 -13 -17 -36 -31 -53 -27 -31 -90
-143 -90 -159 0 -5 -6 -14 -13 -18 -7 -5 -10 -12 -7 -18 4 -5 2 -9 -3 -9 -4 0
-16 -28 -26 -62 -10 -35 -22 -75 -27 -89 -24 -63 -32 -290 -12 -322 4 -7 9
-36 10 -66 1 -30 7 -58 14 -62 6 -4 9 -11 5 -17 -3 -6 1 -18 10 -27 9 -9 14
-19 11 -22 -8 -7 51 -93 69 -100 8 -3 11 -9 8 -14 -3 -5 0 -9 5 -9 6 0 11 -5
11 -11 0 -10 22 -36 94 -112 15 -16 29 -36 30 -43 2 -15 63 -64 79 -64 6 0 15
-8 22 -17 11 -15 15 -15 29 -4 18 15 51 7 40 -10 -4 -7 1 -18 10 -25 12 -8 14
-14 6 -19 -6 -4 -14 -5 -17 -2 -2 3 -18 1 -34 -5 -40 -14 -45 -54 -21 -153 11
-44 26 -113 33 -154 7 -40 19 -79 26 -86 7 -8 11 -19 8 -27 -6 -17 29 -58 54
-63 25 -5 64 45 55 69 -3 9 -1 69 6 134 7 64 13 141 15 169 2 62 8 71 30 49 9
-9 20 -16 24 -16 4 0 13 -24 20 -52 21 -83 40 -138 74 -208 25 -51 37 -66 57
-68 47 -5 93 59 51 73 -19 6 -19 6 0 51 11 25 20 57 19 72 -3 43 -1 48 23 59
23 11 109 -5 127 -23 5 -5 26 -68 48 -140 40 -133 57 -174 70 -174 5 0 18 9
31 21 20 19 22 28 20 123 -2 56 0 106 3 112 4 5 0 20 -7 34 -12 23 -11 25 17
37 17 7 45 13 63 13 28 0 36 -6 52 -37 11 -21 25 -63 32 -93 25 -109 45 -134
91 -110 33 18 40 52 39 185 -2 126 2 145 27 145 8 0 23 9 35 21 27 27 43 20
50 -22 3 -19 13 -45 22 -59 9 -14 19 -44 23 -68 4 -23 11 -45 15 -48 12 -7 11
-55 -1 -74 -14 -23 8 -40 51 -40 33 0 40 4 45 24 3 14 3 29 0 35 -4 5 -2 12 3
15 5 3 14 39 21 79 6 39 18 105 26 144 16 76 12 124 -12 144 -16 13 -19 39 -3
39 5 0 7 4 4 10 -3 5 6 12 20 16 14 3 24 12 23 18 -2 7 9 28 25 47 66 82 86
112 112 164 15 31 24 62 22 70 -3 7 1 16 9 19 8 3 14 14 14 25 0 11 4 22 9 25
13 9 1 47 -13 39 -6 -3 -2 3 8 15 15 17 20 41 22 118 2 52 6 99 9 103 15 25
-44 231 -67 231 -4 0 -5 6 -2 14 5 13 -58 122 -80 137 -4 4 -2 9 5 11 10 3 7
12 -11 35 -28 34 -42 54 -70 101 -11 17 -24 32 -29 32 -5 0 -12 11 -15 25 -4
14 -11 25 -16 25 -6 0 -10 7 -10 15 0 8 -4 15 -9 15 -6 0 -30 18 -54 40 -39
36 -45 47 -51 96 -8 68 0 104 24 104 22 0 50 26 50 46 0 8 -8 14 -17 14 -14 0
-15 2 -4 9 10 6 11 20 6 52 -4 24 -10 49 -13 54 -4 6 -7 26 -8 45 -3 53 -12
100 -31 155 -27 77 -49 85 -83 29 -12 -19 -20 -38 -16 -41 3 -3 1 -12 -4 -18
-14 -17 -45 -126 -56 -198 -4 -20 -10 -40 -15 -43 -5 -3 -9 -18 -9 -34 0 -24
8 -35 40 -56 40 -27 46 -39 32 -62 -10 -15 -34 -8 -74 21 -14 11 -31 16 -37
13 -6 -4 -14 -1 -17 7 -3 9 -18 20 -34 27 -17 7 -30 21 -32 35 -4 21 -1 24 26
27 26 3 31 8 37 38 4 19 3 40 -2 47 -6 6 -9 17 -8 25 3 16 -10 66 -24 93 -6
11 -12 34 -13 50 -4 54 -35 170 -47 177 -22 14 -46 8 -58 -13z m-111 -493 c12
-1 22 -4 22 -8 0 -5 9 -8 21 -8 46 0 56 -15 64 -102 5 -46 8 -102 7 -125 0
-24 3 -45 7 -48 5 -2 7 -41 6 -85 -2 -44 1 -80 6 -80 5 0 4 -9 -3 -19 -9 -15
-9 -26 -1 -43 19 -39 22 -54 13 -69 -5 -8 -4 -19 2 -26 6 -7 6 -13 1 -13 -10
0 -2 -98 10 -116 4 -7 0 -17 -8 -24 -9 -8 -11 -17 -5 -28 18 -35 22 -59 24
-137 1 -44 5 -86 9 -93 5 -7 9 -55 9 -107 0 -51 4 -111 9 -132 5 -21 10 -84
10 -140 0 -56 4 -117 9 -135 8 -24 7 -34 -4 -40 -7 -4 -11 -17 -9 -31 3 -16
-6 -34 -31 -61 -20 -20 -36 -46 -36 -56 0 -24 -63 -45 -68 -24 -2 7 -16 19
-33 26 l-29 13 -1 100 c-2 148 -7 283 -14 345 -4 30 -7 64 -9 75 -1 11 2 23 7
26 5 4 2 20 -7 37 -10 19 -12 33 -6 37 15 9 8 57 -12 87 -10 14 -14 28 -9 30
15 5 16 174 2 268 -7 47 -14 108 -16 135 -1 28 -7 61 -12 75 -8 20 -7 26 5 31
11 4 12 8 4 13 -11 7 -14 40 -12 144 0 19 -3 39 -7 45 -4 7 -8 23 -9 37 -1 14
-6 69 -10 123 -8 111 -3 122 51 110 17 -4 40 -7 53 -7z m-215 -25 c4 -4 9 -54
11 -112 2 -57 9 -120 16 -139 19 -59 22 -91 24 -212 0 -64 4 -120 9 -124 4 -4
7 -20 7 -36 0 -15 4 -28 8 -28 5 0 10 -25 11 -55 1 -36 -3 -55 -10 -55 -8 0
-7 -5 2 -16 14 -18 21 -141 8 -165 -5 -10 -3 -21 4 -28 12 -12 13 -16 20 -231
6 -157 15 -232 31 -242 8 -5 7 -8 -1 -8 -8 0 -13 -14 -13 -34 0 -19 -4 -38
-10 -41 -12 -8 -13 -55 -1 -55 12 0 21 -40 15 -67 -4 -13 -14 -23 -24 -23 -12
0 -21 -10 -25 -30 -7 -31 -11 -33 -59 -30 -20 1 -26 -2 -21 -10 4 -7 -5 -4
-19 5 -19 12 -25 23 -20 34 4 9 9 29 12 45 5 33 -9 46 -53 46 -41 0 -60 13
-43 28 10 8 13 38 11 114 -2 84 -6 105 -20 115 -10 8 -12 13 -4 13 7 0 12 10
11 23 -1 12 -1 27 0 32 1 6 1 51 0 100 -1 63 -6 95 -16 106 -10 11 -11 18 -4
21 15 5 16 78 0 88 -7 4 -9 13 -6 19 4 6 1 11 -6 11 -10 0 -10 2 1 9 10 6 12
24 8 65 -3 31 -2 56 3 56 4 0 4 19 -1 43 -4 23 -8 72 -9 109 0 37 -4 70 -10
73 -5 3 -10 11 -10 16 0 6 5 7 11 3 8 -4 9 11 3 52 -4 33 -7 65 -6 72 3 30 2
108 -2 251 -2 85 -2 161 1 168 3 7 13 13 22 13 9 0 21 4 27 9 19 19 96 20 117
2z m531 -102 c28 -12 54 -29 84 -56 23 -21 24 -28 18 -78 -3 -30 -2 -55 3 -55
4 0 6 -10 4 -22 -2 -13 1 -59 7 -103 11 -82 12 -91 11 -210 0 -38 4 -86 9
-106 6 -21 7 -47 2 -60 -6 -15 -3 -38 10 -72 10 -27 21 -81 23 -121 9 -165 17
-260 21 -268 3 -4 1 -16 -5 -25 -6 -13 -5 -24 5 -38 10 -13 11 -21 3 -26 -7
-4 -8 -12 -3 -20 10 -15 11 -26 15 -107 3 -61 -17 -88 -90 -125 -25 -12 -46
-29 -46 -37 0 -9 -10 -15 -23 -16 -18 -1 -21 3 -17 17 5 14 0 21 -17 28 -38
14 -45 32 -46 115 0 43 -5 82 -11 85 -6 4 -6 12 -1 21 5 9 5 19 -2 27 -7 8 -7
13 0 13 16 0 2 366 -17 428 -5 17 -7 32 -3 32 8 0 8 52 0 66 -10 16 -23 217
-27 422 -1 14 -7 22 -18 22 -17 1 -17 1 0 11 11 7 15 18 12 32 -3 12 -7 77 -9
145 -2 103 0 124 13 132 11 6 24 1 45 -17 16 -14 39 -29 50 -34z m-797 -4 c1
-22 5 -62 8 -90 3 -27 5 -86 5 -130 0 -44 4 -86 9 -94 5 -8 6 -24 1 -37 -6
-14 -5 -26 0 -29 5 -3 9 -21 8 -40 -1 -19 -4 -32 -8 -30 -4 3 -6 -35 -5 -82 2
-48 7 -89 11 -90 10 -3 9 -147 -1 -163 -4 -6 1 -23 11 -38 20 -30 20 -102 1
-133 -9 -14 -9 -22 -1 -27 11 -7 31 -137 24 -157 -2 -5 -3 -21 -2 -35 1 -14 2
-78 2 -142 1 -65 5 -120 10 -123 4 -3 8 -34 8 -69 l0 -64 -51 13 c-84 21 -163
68 -149 89 10 16 9 180 -2 187 -5 4 -5 23 1 45 5 22 6 59 1 83 -4 24 -6 63 -3
87 2 24 0 44 -5 44 -5 0 -7 7 -4 15 4 9 1 15 -7 15 -9 0 -10 3 -3 10 14 14 5
112 -10 122 -7 5 -6 8 3 8 11 0 13 22 8 123 -12 216 -16 487 -8 492 4 2 6 45
3 96 -5 109 4 131 68 165 61 32 75 28 77 -21z m-247 -198 c1 -23 1 -60 1 -82
1 -22 -1 -61 -4 -87 -3 -27 -1 -50 4 -54 6 -3 8 -12 5 -20 -3 -8 0 -14 6 -14
7 0 7 -4 0 -12 -9 -12 -10 -86 -2 -113 2 -5 0 -23 -5 -39 -4 -15 -4 -31 1 -35
10 -7 17 -30 15 -48 -6 -39 5 -362 12 -369 3 -3 3 -34 1 -69 -2 -35 0 -75 5
-88 5 -14 7 -27 4 -30 -5 -6 -5 -123 0 -168 2 -14 7 -31 12 -38 6 -11 2 -12
-20 -7 -16 4 -52 32 -81 63 -40 42 -58 54 -74 50 -11 -3 -23 0 -27 5 -3 7 -1
8 5 4 7 -4 12 -3 12 2 0 6 -7 12 -15 16 -8 3 -12 12 -9 21 4 10 0 15 -15 15
-18 0 -19 3 -10 18 9 15 7 28 -9 63 -22 45 -55 104 -84 149 -32 50 -66 285
-45 307 4 3 7 22 7 41 0 75 112 378 154 417 6 6 29 33 51 60 86 108 104 115
105 42z m1274 7 c9 -3 16 -13 16 -20 0 -8 7 -17 15 -20 8 -4 15 -10 15 -16 0
-5 20 -34 45 -65 25 -30 45 -62 45 -70 0 -9 11 -31 25 -49 14 -18 25 -38 25
-44 0 -6 9 -28 19 -48 47 -89 57 -132 67 -277 8 -104 -15 -239 -50 -292 -13
-21 -32 -58 -42 -83 -9 -25 -26 -55 -36 -66 -11 -12 -27 -37 -36 -55 -9 -18
-22 -35 -29 -37 -17 -5 -26 39 -15 69 6 15 6 32 1 41 -5 8 -11 46 -13 84 -3
38 -9 86 -14 106 -7 25 -6 40 2 48 8 8 7 14 -5 23 -12 10 -13 16 -3 36 7 14
10 29 7 35 -4 5 -7 26 -7 45 -1 24 -5 35 -14 33 -9 -1 -11 2 -6 10 5 7 7 26 5
43 -2 16 -4 44 -6 60 -6 80 -27 180 -38 187 -9 6 -9 8 1 8 15 0 16 77 1 189
-10 71 -7 131 5 131 3 0 11 -3 20 -6z"/>
</g>
</svg>
